<svg width="212" height="36" viewBox="0 0 212 36" fill="none" xmlns="http://www.w3.org/2000/svg">
<rect width="212" height="36" rx="6" fill="url(#paint0_linear_4110_6731)"/>
<path fill-rule="evenodd" clip-rule="evenodd" d="M12.0545 13.0095C11.8552 12.5245 12.2266 12 12.7701 12H16.1442C16.4612 12 16.7419 12.182 16.8597 12.4635L19.5454 18.9289C19.6178 19.1024 19.6178 19.2974 19.5454 19.4749L17.8561 23.5354C17.5979 24.1549 16.6831 24.1549 16.4249 23.5354L12.0545 13.0095ZM18.5718 12.988C18.3906 12.507 18.762 12 19.2964 12H22.2357C22.5617 12 22.8516 12.195 22.9603 12.4855L25.4014 18.9504C25.4603 19.1109 25.4603 19.2884 25.4014 19.4534L23.934 23.3404C23.6894 23.9904 22.7293 23.9904 22.4848 23.3404L18.5718 12.988ZM25.1704 12C24.627 12 24.2556 12.5245 24.4549 13.0095L28.8252 23.5354C29.0834 24.1549 29.9982 24.1549 30.2564 23.5354L31.9457 19.4749C32.0181 19.2974 32.0181 19.1024 31.9457 18.9289L29.26 12.4635C29.1423 12.182 28.8615 12 28.5445 12H25.1704Z" fill="white"/>
<line x1="44.5" y1="-2.18557e-08" x2="44.5" y2="36" stroke="white" stroke-opacity="0.2"/>
<path d="M60.4545 23H57.0043V12.8182H60.5241C61.535 12.8182 62.4034 13.022 63.1293 13.4297C63.8584 13.834 64.4186 14.4157 64.8097 15.1747C65.2008 15.9337 65.3963 16.8419 65.3963 17.8991C65.3963 18.9598 65.1991 19.8712 64.8047 20.6335C64.4136 21.3958 63.8485 21.9808 63.1094 22.3885C62.3736 22.7962 61.4886 23 60.4545 23ZM58.8487 21.4041H60.3651C61.0743 21.4041 61.666 21.2749 62.1399 21.0163C62.6139 20.7545 62.9702 20.3651 63.2088 19.848C63.4474 19.3277 63.5668 18.678 63.5668 17.8991C63.5668 17.1203 63.4474 16.474 63.2088 15.9602C62.9702 15.4432 62.6172 15.0571 62.1499 14.8018C61.6858 14.5433 61.1091 14.4141 60.4197 14.4141H58.8487V21.4041ZM70.4499 23.1491C69.6843 23.1491 69.0231 22.9901 68.4663 22.6719C67.9128 22.3504 67.4869 21.8963 67.1886 21.3097C66.8903 20.7197 66.7411 20.0253 66.7411 19.2266C66.7411 18.4411 66.8903 17.7517 67.1886 17.1584C67.4902 16.5618 67.9111 16.0978 68.4513 15.7663C68.9916 15.4316 69.6263 15.2642 70.3555 15.2642C70.8261 15.2642 71.2702 15.3404 71.6879 15.4929C72.1088 15.642 72.48 15.8741 72.8015 16.1889C73.1263 16.5038 73.3815 16.9048 73.5671 17.392C73.7527 17.8759 73.8455 18.4527 73.8455 19.1222V19.674H67.5863V18.4609H72.1204C72.1171 18.1162 72.0425 17.8097 71.8967 17.5412C71.7508 17.2694 71.547 17.0556 71.2852 16.8999C71.0266 16.7441 70.725 16.6662 70.3803 16.6662C70.0124 16.6662 69.6893 16.7557 69.4109 16.9347C69.1325 17.1103 68.9154 17.3423 68.7596 17.6307C68.6071 17.9157 68.5292 18.2289 68.5259 18.5703V19.6293C68.5259 20.0734 68.6071 20.4545 68.7695 20.7727C68.9319 21.0876 69.159 21.3295 69.4506 21.4986C69.7423 21.6643 70.0837 21.7472 70.4748 21.7472C70.7366 21.7472 70.9736 21.7107 71.1857 21.6378C71.3978 21.5616 71.5818 21.4505 71.7376 21.3047C71.8933 21.1589 72.011 20.9782 72.0906 20.7628L73.771 20.9517C73.6649 21.3958 73.4627 21.7836 73.1644 22.1151C72.8694 22.4432 72.4916 22.6984 72.0309 22.8807C71.5702 23.0597 71.0432 23.1491 70.4499 23.1491ZM75.3681 25.8636V15.3636H77.138V16.6264H77.2424C77.3352 16.4408 77.4661 16.2436 77.6351 16.0348C77.8042 15.8227 78.0328 15.642 78.3212 15.4929C78.6096 15.3404 78.9775 15.2642 79.4249 15.2642C80.0149 15.2642 80.5468 15.415 81.0208 15.7166C81.498 16.0149 81.8759 16.4574 82.1543 17.044C82.436 17.6274 82.5769 18.3433 82.5769 19.1918C82.5769 20.0303 82.4393 20.7429 82.1642 21.3295C81.8891 21.9162 81.5146 22.3636 81.0407 22.6719C80.5667 22.9801 80.0298 23.1342 79.4299 23.1342C78.9924 23.1342 78.6294 23.0613 78.3411 22.9155C78.0527 22.7696 77.8207 22.594 77.6451 22.3885C77.4727 22.1797 77.3385 21.9825 77.2424 21.7969H77.1678V25.8636H75.3681ZM77.133 19.1818C77.133 19.6757 77.2026 20.1082 77.3418 20.4794C77.4843 20.8506 77.6882 21.1406 77.9533 21.3494C78.2218 21.5549 78.5466 21.6577 78.9277 21.6577C79.3255 21.6577 79.6586 21.5516 79.927 21.3395C80.1955 21.1241 80.3977 20.8307 80.5336 20.4595C80.6728 20.085 80.7424 19.6591 80.7424 19.1818C80.7424 18.7079 80.6744 18.2869 80.5385 17.919C80.4026 17.5511 80.2005 17.2628 79.932 17.054C79.6635 16.8452 79.3288 16.7408 78.9277 16.7408C78.5433 16.7408 78.2168 16.8419 77.9483 17.044C77.6799 17.2462 77.476 17.5296 77.3368 17.8942C77.2009 18.2588 77.133 18.688 77.133 19.1818ZM85.9178 12.8182V23H84.1181V12.8182H85.9178ZM91.0994 23.1491C90.3537 23.1491 89.7074 22.9851 89.1605 22.657C88.6136 22.3288 88.1894 21.8698 87.8878 21.2798C87.5895 20.6899 87.4403 20.0005 87.4403 19.2116C87.4403 18.4228 87.5895 17.7318 87.8878 17.1385C88.1894 16.5452 88.6136 16.0845 89.1605 15.7564C89.7074 15.4283 90.3537 15.2642 91.0994 15.2642C91.8452 15.2642 92.4915 15.4283 93.0384 15.7564C93.5852 16.0845 94.0078 16.5452 94.3061 17.1385C94.6077 17.7318 94.7585 18.4228 94.7585 19.2116C94.7585 20.0005 94.6077 20.6899 94.3061 21.2798C94.0078 21.8698 93.5852 22.3288 93.0384 22.657C92.4915 22.9851 91.8452 23.1491 91.0994 23.1491ZM91.1094 21.7074C91.5137 21.7074 91.8518 21.5964 92.1236 21.3743C92.3954 21.1489 92.5975 20.8473 92.7301 20.4695C92.866 20.0916 92.9339 19.6707 92.9339 19.2067C92.9339 18.7393 92.866 18.3168 92.7301 17.9389C92.5975 17.5578 92.3954 17.2545 92.1236 17.0291C91.8518 16.8037 91.5137 16.6911 91.1094 16.6911C90.6951 16.6911 90.3504 16.8037 90.0753 17.0291C89.8035 17.2545 89.5997 17.5578 89.4638 17.9389C89.3312 18.3168 89.2649 18.7393 89.2649 19.2067C89.2649 19.6707 89.3312 20.0916 89.4638 20.4695C89.5997 20.8473 89.8035 21.1489 90.0753 21.3743C90.3504 21.5964 90.6951 21.7074 91.1094 21.7074ZM97.1449 25.8636C96.8996 25.8636 96.6726 25.8438 96.4638 25.804C96.2583 25.7675 96.0942 25.7244 95.9716 25.6747L96.3892 24.2727C96.651 24.349 96.8847 24.3854 97.0902 24.3821C97.2957 24.3788 97.4763 24.3142 97.6321 24.1882C97.7912 24.0656 97.9254 23.8601 98.0348 23.5717L98.1889 23.1591L95.4197 15.3636H97.3288L99.0888 21.1307H99.1683L100.933 15.3636H102.847L99.7898 23.9247C99.6473 24.3291 99.4583 24.6754 99.223 24.9638C98.9877 25.2554 98.6993 25.4775 98.358 25.63C98.0199 25.7857 97.6155 25.8636 97.1449 25.8636ZM109.141 23L106.984 15.3636H108.818L110.161 20.733H110.23L111.602 15.3636H113.417L114.789 20.7031H114.864L116.186 15.3636H118.026L115.863 23H113.989L112.557 17.8395H112.452L111.021 23H109.141ZM119.282 23V15.3636H121.082V23H119.282ZM120.187 14.2798C119.902 14.2798 119.657 14.1854 119.451 13.9964C119.246 13.8042 119.143 13.5739 119.143 13.3054C119.143 13.0336 119.246 12.8033 119.451 12.6143C119.657 12.4221 119.902 12.326 120.187 12.326C120.475 12.326 120.721 12.4221 120.923 12.6143C121.128 12.8033 121.231 13.0336 121.231 13.3054C121.231 13.5739 121.128 13.8042 120.923 13.9964C120.721 14.1854 120.475 14.2798 120.187 14.2798ZM126.746 15.3636V16.7557H122.356V15.3636H126.746ZM123.44 13.5341H125.239V20.7031C125.239 20.9451 125.276 21.1307 125.349 21.2599C125.425 21.3859 125.524 21.4721 125.647 21.5185C125.77 21.5649 125.906 21.5881 126.055 21.5881C126.167 21.5881 126.27 21.5798 126.363 21.5632C126.459 21.5466 126.532 21.5317 126.582 21.5185L126.885 22.9254C126.789 22.9586 126.651 22.995 126.472 23.0348C126.297 23.0746 126.081 23.0978 125.826 23.1044C125.375 23.1177 124.969 23.0497 124.608 22.9006C124.247 22.7481 123.96 22.5128 123.748 22.1946C123.539 21.8764 123.436 21.4787 123.44 21.0014V13.5341ZM130.215 18.5256V23H128.415V12.8182H130.175V16.6612H130.264C130.443 16.2304 130.72 15.8906 131.095 15.642C131.472 15.3902 131.953 15.2642 132.536 15.2642C133.067 15.2642 133.529 15.3752 133.923 15.5973C134.318 15.8194 134.623 16.1442 134.838 16.5717C135.057 16.9993 135.166 17.5213 135.166 18.1378V23H133.367V18.4162C133.367 17.9025 133.234 17.5031 132.969 17.218C132.707 16.9297 132.339 16.7855 131.865 16.7855C131.547 16.7855 131.262 16.8551 131.01 16.9943C130.762 17.1302 130.566 17.3274 130.423 17.5859C130.284 17.8445 130.215 18.1577 130.215 18.5256ZM144.287 15.3636V16.7557H139.897V15.3636H144.287ZM140.981 13.5341H142.78V20.7031C142.78 20.9451 142.817 21.1307 142.89 21.2599C142.966 21.3859 143.065 21.4721 143.188 21.5185C143.311 21.5649 143.447 21.5881 143.596 21.5881C143.708 21.5881 143.811 21.5798 143.904 21.5632C144 21.5466 144.073 21.5317 144.123 21.5185L144.426 22.9254C144.33 22.9586 144.192 22.995 144.013 23.0348C143.838 23.0746 143.622 23.0978 143.367 23.1044C142.916 23.1177 142.51 23.0497 142.149 22.9006C141.788 22.7481 141.501 22.5128 141.289 22.1946C141.08 21.8764 140.977 21.4787 140.981 21.0014V13.5341ZM147.756 18.5256V23H145.956V12.8182H147.716V16.6612H147.805C147.984 16.2304 148.261 15.8906 148.636 15.642C149.013 15.3902 149.494 15.2642 150.077 15.2642C150.608 15.2642 151.07 15.3752 151.464 15.5973C151.859 15.8194 152.164 16.1442 152.379 16.5717C152.598 16.9993 152.707 17.5213 152.707 18.1378V23H150.908V18.4162C150.908 17.9025 150.775 17.5031 150.51 17.218C150.248 16.9297 149.88 16.7855 149.406 16.7855C149.088 16.7855 148.803 16.8551 148.551 16.9943C148.303 17.1302 148.107 17.3274 147.964 17.5859C147.825 17.8445 147.756 18.1577 147.756 18.5256ZM154.542 23V15.3636H156.342V23H154.542ZM155.447 14.2798C155.162 14.2798 154.916 14.1854 154.711 13.9964C154.505 13.8042 154.403 13.5739 154.403 13.3054C154.403 13.0336 154.505 12.8033 154.711 12.6143C154.916 12.4221 155.162 12.326 155.447 12.326C155.735 12.326 155.98 12.4221 156.183 12.6143C156.388 12.8033 156.491 13.0336 156.491 13.3054C156.491 13.5739 156.388 13.8042 156.183 13.9964C155.98 14.1854 155.735 14.2798 155.447 14.2798ZM158.192 23V15.3636H159.937V16.6364H160.017C160.156 16.1955 160.395 15.8558 160.733 15.6172C161.074 15.3752 161.464 15.2543 161.901 15.2543C162.001 15.2543 162.112 15.2592 162.234 15.2692C162.36 15.2758 162.465 15.2874 162.547 15.304V16.9595C162.471 16.933 162.35 16.9098 162.184 16.8899C162.022 16.8667 161.865 16.8551 161.712 16.8551C161.384 16.8551 161.089 16.9264 160.827 17.0689C160.569 17.2081 160.365 17.402 160.216 17.6506C160.067 17.8991 159.992 18.1858 159.992 18.5107V23H158.192ZM166.262 23.1342C165.663 23.1342 165.126 22.9801 164.652 22.6719C164.178 22.3636 163.803 21.9162 163.528 21.3295C163.253 20.7429 163.115 20.0303 163.115 19.1918C163.115 18.3433 163.255 17.6274 163.533 17.044C163.815 16.4574 164.194 16.0149 164.672 15.7166C165.149 15.415 165.681 15.2642 166.267 15.2642C166.715 15.2642 167.083 15.3404 167.371 15.4929C167.659 15.642 167.888 15.8227 168.057 16.0348C168.226 16.2436 168.357 16.4408 168.45 16.6264H168.525V12.8182H170.329V23H168.559V21.7969H168.45C168.357 21.9825 168.223 22.1797 168.047 22.3885C167.872 22.594 167.64 22.7696 167.351 22.9155C167.063 23.0613 166.7 23.1342 166.262 23.1342ZM166.765 21.6577C167.146 21.6577 167.471 21.5549 167.739 21.3494C168.007 21.1406 168.211 20.8506 168.35 20.4794C168.49 20.1082 168.559 19.6757 168.559 19.1818C168.559 18.688 168.49 18.2588 168.35 17.8942C168.215 17.5296 168.012 17.2462 167.744 17.044C167.479 16.8419 167.152 16.7408 166.765 16.7408C166.364 16.7408 166.029 16.8452 165.76 17.054C165.492 17.2628 165.29 17.5511 165.154 17.919C165.018 18.2869 164.95 18.7079 164.95 19.1818C164.95 19.6591 165.018 20.085 165.154 20.4595C165.293 20.8307 165.497 21.1241 165.765 21.3395C166.037 21.5516 166.37 21.6577 166.765 21.6577ZM173.823 23L171.665 15.3636H173.5L174.842 20.733H174.912L176.284 15.3636H178.099L179.471 20.7031H179.545L180.868 15.3636H182.707L180.545 23H178.67L177.238 17.8395H177.134L175.702 23H173.823ZM187.126 23.1491C186.36 23.1491 185.699 22.9901 185.142 22.6719C184.589 22.3504 184.163 21.8963 183.864 21.3097C183.566 20.7197 183.417 20.0253 183.417 19.2266C183.417 18.4411 183.566 17.7517 183.864 17.1584C184.166 16.5618 184.587 16.0978 185.127 15.7663C185.667 15.4316 186.302 15.2642 187.031 15.2642C187.502 15.2642 187.946 15.3404 188.364 15.4929C188.785 15.642 189.156 15.8741 189.477 16.1889C189.802 16.5038 190.057 16.9048 190.243 17.392C190.429 17.8759 190.521 18.4527 190.521 19.1222V19.674H184.262V18.4609H188.796C188.793 18.1162 188.718 17.8097 188.572 17.5412C188.427 17.2694 188.223 17.0556 187.961 16.8999C187.702 16.7441 187.401 16.6662 187.056 16.6662C186.688 16.6662 186.365 16.7557 186.087 16.9347C185.808 17.1103 185.591 17.3423 185.435 17.6307C185.283 17.9157 185.205 18.2289 185.202 18.5703V19.6293C185.202 20.0734 185.283 20.4545 185.445 20.7727C185.608 21.0876 185.835 21.3295 186.126 21.4986C186.418 21.6643 186.759 21.7472 187.151 21.7472C187.412 21.7472 187.649 21.7107 187.862 21.6378C188.074 21.5616 188.258 21.4505 188.413 21.3047C188.569 21.1589 188.687 20.9782 188.766 20.7628L190.447 20.9517C190.341 21.3958 190.138 21.7836 189.84 22.1151C189.545 22.4432 189.167 22.6984 188.707 22.8807C188.246 23.0597 187.719 23.1491 187.126 23.1491ZM192.123 23V12.8182H193.923V16.6264H193.998C194.09 16.4408 194.221 16.2436 194.39 16.0348C194.559 15.8227 194.788 15.642 195.077 15.4929C195.365 15.3404 195.733 15.2642 196.18 15.2642C196.77 15.2642 197.302 15.415 197.776 15.7166C198.253 16.0149 198.631 16.4574 198.91 17.044C199.191 17.6274 199.332 18.3433 199.332 19.1918C199.332 20.0303 199.195 20.7429 198.92 21.3295C198.644 21.9162 198.27 22.3636 197.796 22.6719C197.322 22.9801 196.785 23.1342 196.185 23.1342C195.748 23.1342 195.385 23.0613 195.096 22.9155C194.808 22.7696 194.576 22.594 194.4 22.3885C194.228 22.1797 194.094 21.9825 193.998 21.7969H193.893V23H192.123ZM193.888 19.1818C193.888 19.6757 193.958 20.1082 194.097 20.4794C194.24 20.8506 194.443 21.1406 194.709 21.3494C194.977 21.5549 195.302 21.6577 195.683 21.6577C196.081 21.6577 196.414 21.5516 196.682 21.3395C196.951 21.1241 197.153 20.8307 197.289 20.4595C197.428 20.085 197.498 19.6591 197.498 19.1818C197.498 18.7079 197.43 18.2869 197.294 17.919C197.158 17.5511 196.956 17.2628 196.687 17.054C196.419 16.8452 196.084 16.7408 195.683 16.7408C195.299 16.7408 194.972 16.8419 194.704 17.044C194.435 17.2462 194.231 17.5296 194.092 17.8942C193.956 18.2588 193.888 18.688 193.888 19.1818Z" fill="white"/>
<defs>
<linearGradient id="paint0_linear_4110_6731" x1="-47.37" y1="1.44" x2="-18.5189" y2="98.4301" gradientUnits="userSpaceOnUse">
<stop stop-color="#F213A4"/>
<stop offset="1" stop-color="#5204BF"/>
</linearGradient>
</defs>
</svg>
