<svg width="320" height="48" viewBox="0 0 320 48" fill="none" xmlns="http://www.w3.org/2000/svg">
<rect width="319.059" height="48" rx="5" fill="#0098EE"/>
<path d="M81.4563 32H76.0344V16H81.5656C83.1542 16 84.5188 16.3203 85.6594 16.9609C86.8052 17.5964 87.6854 18.5104 88.3 19.7031C88.9146 20.8958 89.2219 22.3229 89.2219 23.9844C89.2219 25.651 88.912 27.0833 88.2922 28.2812C87.6776 29.4792 86.7896 30.3984 85.6281 31.0391C84.4719 31.6797 83.0813 32 81.4563 32ZM78.9328 29.4922H81.3156C82.4302 29.4922 83.3599 29.2891 84.1047 28.8828C84.8495 28.4714 85.4094 27.8594 85.7844 27.0469C86.1594 26.2292 86.3469 25.2083 86.3469 23.9844C86.3469 22.7604 86.1594 21.7448 85.7844 20.9375C85.4094 20.125 84.8547 19.5182 84.1203 19.1172C83.3911 18.7109 82.4849 18.5078 81.4016 18.5078H78.9328V29.4922ZM97.2633 32.2344C96.0602 32.2344 95.0211 31.9844 94.1461 31.4844C93.2763 30.9792 92.607 30.2656 92.1383 29.3437C91.6695 28.4167 91.4352 27.3255 91.4352 26.0703C91.4352 24.8359 91.6695 23.7526 92.1383 22.8203C92.6122 21.8828 93.2737 21.1536 94.1227 20.6328C94.9716 20.1068 95.969 19.8438 97.1148 19.8438C97.8544 19.8438 98.5523 19.9635 99.2086 20.2031C99.8701 20.4375 100.453 20.8021 100.959 21.2969C101.469 21.7917 101.87 22.4219 102.162 23.1875C102.453 23.9479 102.599 24.8542 102.599 25.9062V26.7734H92.7633V24.8672H99.8883C99.8831 24.3255 99.7659 23.8437 99.5367 23.4219C99.3076 22.9948 98.9872 22.6589 98.5758 22.4141C98.1695 22.1693 97.6956 22.0469 97.1539 22.0469C96.5758 22.0469 96.068 22.1875 95.6305 22.4687C95.193 22.7448 94.8518 23.1094 94.607 23.5625C94.3675 24.0104 94.2451 24.5026 94.2398 25.0391V26.7031C94.2398 27.401 94.3675 28 94.6227 28.5C94.8779 28.9948 95.2346 29.375 95.693 29.6406C96.1513 29.901 96.6878 30.0312 97.3023 30.0312C97.7138 30.0312 98.0862 29.974 98.4195 29.8594C98.7529 29.7396 99.0419 29.5651 99.2867 29.3359C99.5315 29.1068 99.7164 28.8229 99.8414 28.4844L102.482 28.7812C102.315 29.4792 101.998 30.0885 101.529 30.6094C101.065 31.125 100.472 31.526 99.7477 31.8125C99.0237 32.0937 98.1956 32.2344 97.2633 32.2344ZM105.092 36.5V20H107.873V21.9844H108.037C108.183 21.6927 108.389 21.3828 108.654 21.0547C108.92 20.7214 109.279 20.4375 109.732 20.2031C110.186 19.9635 110.764 19.8438 111.467 19.8438C112.394 19.8438 113.23 20.0807 113.975 20.5547C114.725 21.0234 115.318 21.7187 115.756 22.6406C116.199 23.5573 116.42 24.6823 116.42 26.0156C116.42 27.3333 116.204 28.4531 115.771 29.375C115.339 30.2969 114.751 31 114.006 31.4844C113.261 31.9688 112.417 32.2109 111.475 32.2109C110.787 32.2109 110.217 32.0964 109.764 31.8672C109.311 31.638 108.946 31.362 108.67 31.0391C108.399 30.7109 108.188 30.401 108.037 30.1094H107.92V36.5H105.092ZM107.865 26C107.865 26.776 107.975 27.4557 108.193 28.0391C108.417 28.6224 108.738 29.0781 109.154 29.4062C109.576 29.7292 110.087 29.8906 110.686 29.8906C111.311 29.8906 111.834 29.724 112.256 29.3906C112.678 29.0521 112.995 28.5911 113.209 28.0078C113.428 27.4193 113.537 26.75 113.537 26C113.537 25.2552 113.43 24.5937 113.217 24.0156C113.003 23.4375 112.686 22.9844 112.264 22.6562C111.842 22.3281 111.316 22.1641 110.686 22.1641C110.081 22.1641 109.568 22.3229 109.146 22.6406C108.725 22.9583 108.404 23.4036 108.186 23.9766C107.972 24.5495 107.865 25.224 107.865 26ZM121.77 16V32H118.942V16H121.77ZM130.013 32.2344C128.841 32.2344 127.825 31.9766 126.966 31.4609C126.106 30.9453 125.44 30.224 124.966 29.2969C124.497 28.3698 124.263 27.2865 124.263 26.0469C124.263 24.8073 124.497 23.7214 124.966 22.7891C125.44 21.8568 126.106 21.1328 126.966 20.6172C127.825 20.1016 128.841 19.8438 130.013 19.8438C131.184 19.8438 132.2 20.1016 133.059 20.6172C133.919 21.1328 134.583 21.8568 135.052 22.7891C135.526 23.7214 135.763 24.8073 135.763 26.0469C135.763 27.2865 135.526 28.3698 135.052 29.2969C134.583 30.224 133.919 30.9453 133.059 31.4609C132.2 31.9766 131.184 32.2344 130.013 32.2344ZM130.028 29.9687C130.664 29.9687 131.195 29.7943 131.622 29.4453C132.049 29.0911 132.367 28.6172 132.575 28.0234C132.789 27.4297 132.895 26.7682 132.895 26.0391C132.895 25.3047 132.789 24.6406 132.575 24.0469C132.367 23.4479 132.049 22.9714 131.622 22.6172C131.195 22.263 130.664 22.0859 130.028 22.0859C129.377 22.0859 128.835 22.263 128.403 22.6172C127.976 22.9714 127.656 23.4479 127.442 24.0469C127.234 24.6406 127.13 25.3047 127.13 26.0391C127.13 26.7682 127.234 27.4297 127.442 28.0234C127.656 28.6172 127.976 29.0911 128.403 29.4453C128.835 29.7943 129.377 29.9687 130.028 29.9687ZM139.613 36.5C139.227 36.5 138.87 36.4688 138.542 36.4063C138.219 36.349 137.961 36.2813 137.769 36.2031L138.425 34C138.836 34.1198 139.204 34.1771 139.527 34.1719C139.849 34.1667 140.133 34.0651 140.378 33.8672C140.628 33.6745 140.839 33.3516 141.011 32.8984L141.253 32.25L136.902 20H139.902L142.667 29.0625H142.792L145.566 20H148.573L143.769 33.4531C143.545 34.0885 143.248 34.6328 142.878 35.0859C142.508 35.5443 142.055 35.8932 141.519 36.1328C140.988 36.3776 140.352 36.5 139.613 36.5ZM158.664 32L155.273 20H158.156L160.266 28.4375H160.375L162.531 20H165.383L167.539 28.3906H167.656L169.734 20H172.625L169.227 32H166.281L164.031 23.8906H163.867L161.617 32H158.664ZM174.7 32V20H177.528V32H174.7ZM176.121 18.2969C175.674 18.2969 175.288 18.1484 174.965 17.8516C174.642 17.5495 174.481 17.1875 174.481 16.7656C174.481 16.3385 174.642 15.9766 174.965 15.6797C175.288 15.3776 175.674 15.2266 176.121 15.2266C176.575 15.2266 176.96 15.3776 177.278 15.6797C177.601 15.9766 177.762 16.3385 177.762 16.7656C177.762 17.1875 177.601 17.5495 177.278 17.8516C176.96 18.1484 176.575 18.2969 176.121 18.2969ZM186.528 20V22.1875H179.63V20H186.528ZM181.333 17.125H184.161V28.3906C184.161 28.7708 184.218 29.0625 184.333 29.2656C184.453 29.4635 184.609 29.599 184.802 29.6719C184.994 29.7448 185.208 29.7812 185.442 29.7812C185.619 29.7812 185.781 29.7682 185.927 29.7422C186.078 29.7161 186.192 29.6927 186.27 29.6719L186.747 31.8828C186.596 31.9349 186.38 31.9922 186.098 32.0547C185.822 32.1172 185.484 32.1536 185.083 32.1641C184.374 32.1849 183.736 32.0781 183.169 31.8437C182.601 31.6042 182.151 31.2344 181.817 30.7344C181.489 30.2344 181.328 29.6094 181.333 28.8594V17.125ZM192.079 24.9687V32H189.251V16H192.017V22.0391H192.157C192.439 21.362 192.874 20.8281 193.462 20.4375C194.056 20.0417 194.811 19.8438 195.728 19.8438C196.561 19.8438 197.288 20.0182 197.907 20.3672C198.527 20.7161 199.006 21.2266 199.345 21.8984C199.689 22.5703 199.861 23.3906 199.861 24.3594V32H197.032V24.7969C197.032 23.9896 196.824 23.362 196.407 22.9141C195.996 22.4609 195.418 22.2344 194.673 22.2344C194.173 22.2344 193.725 22.3437 193.329 22.5625C192.939 22.776 192.631 23.0859 192.407 23.4922C192.189 23.8984 192.079 24.3906 192.079 24.9687ZM214.393 20V22.1875H207.494V20H214.393ZM209.197 17.125H212.025V28.3906C212.025 28.7708 212.083 29.0625 212.197 29.2656C212.317 29.4635 212.473 29.599 212.666 29.6719C212.859 29.7448 213.072 29.7812 213.307 29.7812C213.484 29.7812 213.645 29.7682 213.791 29.7422C213.942 29.7161 214.057 29.6927 214.135 29.6719L214.611 31.8828C214.46 31.9349 214.244 31.9922 213.963 32.0547C213.687 32.1172 213.348 32.1536 212.947 32.1641C212.239 32.1849 211.601 32.0781 211.033 31.8437C210.465 31.6042 210.015 31.2344 209.682 30.7344C209.354 30.2344 209.192 29.6094 209.197 28.8594V17.125ZM219.944 24.9687V32H217.116V16H219.881V22.0391H220.022C220.303 21.362 220.738 20.8281 221.327 20.4375C221.92 20.0417 222.676 19.8438 223.592 19.8438C224.426 19.8438 225.152 20.0182 225.772 20.3672C226.392 20.7161 226.871 21.2266 227.209 21.8984C227.553 22.5703 227.725 23.3906 227.725 24.3594V32H224.897V24.7969C224.897 23.9896 224.689 23.362 224.272 22.9141C223.86 22.4609 223.282 22.2344 222.538 22.2344C222.038 22.2344 221.59 22.3437 221.194 22.5625C220.803 22.776 220.496 23.0859 220.272 23.4922C220.053 23.8984 219.944 24.3906 219.944 24.9687ZM230.708 32V20H233.536V32H230.708ZM232.13 18.2969C231.682 18.2969 231.296 18.1484 230.973 17.8516C230.651 17.5495 230.489 17.1875 230.489 16.7656C230.489 16.3385 230.651 15.9766 230.973 15.6797C231.296 15.3776 231.682 15.2266 232.13 15.2266C232.583 15.2266 232.968 15.3776 233.286 15.6797C233.609 15.9766 233.77 16.3385 233.77 16.7656C233.77 17.1875 233.609 17.5495 233.286 17.8516C232.968 18.1484 232.583 18.2969 232.13 18.2969ZM236.544 32V20H239.286V22H239.411C239.63 21.3073 240.005 20.7734 240.536 20.3984C241.073 20.0182 241.685 19.8281 242.372 19.8281C242.529 19.8281 242.703 19.8359 242.896 19.8516C243.094 19.862 243.258 19.8802 243.388 19.9062V22.5078C243.268 22.4661 243.078 22.4297 242.818 22.3984C242.562 22.362 242.315 22.3437 242.075 22.3437C241.56 22.3437 241.096 22.4557 240.685 22.6797C240.279 22.8984 239.958 23.2031 239.724 23.5937C239.489 23.9844 239.372 24.4349 239.372 24.9453V32H236.544ZM249.326 32.2109C248.383 32.2109 247.539 31.9688 246.795 31.4844C246.05 31 245.461 30.2969 245.029 29.375C244.597 28.4531 244.38 27.3333 244.38 26.0156C244.38 24.6823 244.599 23.5573 245.037 22.6406C245.479 21.7187 246.076 21.0234 246.826 20.5547C247.576 20.0807 248.412 19.8438 249.334 19.8438C250.037 19.8438 250.615 19.9635 251.068 20.2031C251.521 20.4375 251.88 20.7214 252.146 21.0547C252.412 21.3828 252.617 21.6927 252.763 21.9844H252.88V16H255.716V32H252.935V30.1094H252.763C252.617 30.401 252.407 30.7109 252.13 31.0391C251.854 31.362 251.49 31.638 251.037 31.8672C250.584 32.0964 250.013 32.2109 249.326 32.2109ZM250.115 29.8906C250.714 29.8906 251.224 29.7292 251.646 29.4062C252.068 29.0781 252.388 28.6224 252.607 28.0391C252.826 27.4557 252.935 26.776 252.935 26C252.935 25.224 252.826 24.5495 252.607 23.9766C252.393 23.4036 252.076 22.9583 251.654 22.6406C251.237 22.3229 250.724 22.1641 250.115 22.1641C249.485 22.1641 248.959 22.3281 248.537 22.6562C248.115 22.9844 247.797 23.4375 247.584 24.0156C247.37 24.5937 247.263 25.2552 247.263 26C247.263 26.75 247.37 27.4193 247.584 28.0078C247.802 28.5911 248.123 29.0521 248.545 29.3906C248.972 29.724 249.495 29.8906 250.115 29.8906ZM261.307 32L257.916 20H260.799L262.908 28.4375H263.018L265.174 20H268.025L270.182 28.3906H270.299L272.377 20H275.268L271.869 32H268.924L266.674 23.8906H266.51L264.26 32H261.307ZM282.311 32.2344C281.108 32.2344 280.069 31.9844 279.194 31.4844C278.324 30.9792 277.655 30.2656 277.186 29.3437C276.717 28.4167 276.483 27.3255 276.483 26.0703C276.483 24.8359 276.717 23.7526 277.186 22.8203C277.66 21.8828 278.321 21.1536 279.17 20.6328C280.019 20.1068 281.017 19.8438 282.163 19.8438C282.902 19.8438 283.6 19.9635 284.256 20.2031C284.918 20.4375 285.501 20.8021 286.006 21.2969C286.517 21.7917 286.918 22.4219 287.209 23.1875C287.501 23.9479 287.647 24.8542 287.647 25.9062V26.7734H277.811V24.8672H284.936C284.931 24.3255 284.814 23.8437 284.584 23.4219C284.355 22.9948 284.035 22.6589 283.623 22.4141C283.217 22.1693 282.743 22.0469 282.202 22.0469C281.623 22.0469 281.116 22.1875 280.678 22.4687C280.241 22.7448 279.899 23.1094 279.655 23.5625C279.415 24.0104 279.293 24.5026 279.288 25.0391V26.7031C279.288 27.401 279.415 28 279.67 28.5C279.926 28.9948 280.282 29.375 280.741 29.6406C281.199 29.901 281.735 30.0312 282.35 30.0312C282.761 30.0312 283.134 29.974 283.467 29.8594C283.801 29.7396 284.09 29.5651 284.334 29.3359C284.579 29.1068 284.764 28.8229 284.889 28.4844L287.53 28.7812C287.363 29.4792 287.045 30.0885 286.577 30.6094C286.113 31.125 285.519 31.526 284.795 31.8125C284.071 32.0937 283.243 32.2344 282.311 32.2344ZM290.264 32V16H293.093V21.9844H293.21C293.356 21.6927 293.561 21.3828 293.827 21.0547C294.093 20.7214 294.452 20.4375 294.905 20.2031C295.358 19.9635 295.936 19.8438 296.639 19.8438C297.567 19.8438 298.402 20.0807 299.147 20.5547C299.897 21.0234 300.491 21.7187 300.929 22.6406C301.371 23.5573 301.593 24.6823 301.593 26.0156C301.593 27.3333 301.376 28.4531 300.944 29.375C300.512 30.2969 299.923 31 299.179 31.4844C298.434 31.9688 297.59 32.2109 296.647 32.2109C295.96 32.2109 295.389 32.0964 294.936 31.8672C294.483 31.638 294.119 31.362 293.843 31.0391C293.572 30.7109 293.361 30.401 293.21 30.1094H293.046V32H290.264ZM293.038 26C293.038 26.776 293.147 27.4557 293.366 28.0391C293.59 28.6224 293.91 29.0781 294.327 29.4062C294.749 29.7292 295.259 29.8906 295.858 29.8906C296.483 29.8906 297.007 29.724 297.429 29.3906C297.85 29.0521 298.168 28.5911 298.382 28.0078C298.6 27.4193 298.71 26.75 298.71 26C298.71 25.2552 298.603 24.5937 298.389 24.0156C298.176 23.4375 297.858 22.9844 297.436 22.6562C297.014 22.3281 296.488 22.1641 295.858 22.1641C295.254 22.1641 294.741 22.3229 294.319 22.6406C293.897 22.9583 293.577 23.4036 293.358 23.9766C293.145 24.5495 293.038 25.224 293.038 26Z" fill="white"/>
<path d="M15.664 11.0839C15.1717 9.82779 16.0892 8.4707 17.4319 8.4707H25.7678C26.551 8.4707 27.2447 8.94176 27.5356 9.67077L34.1707 26.4045C34.3498 26.8531 34.3498 27.3578 34.1707 27.8176L29.9972 38.3267C29.3594 39.9305 27.0993 39.9305 26.4615 38.3267L15.664 11.0839Z" fill="url(#paint0_linear_2304_3008)"/>
<path d="M31.7654 11.0279C31.3179 9.78293 32.2354 8.4707 33.5557 8.4707H40.8174C41.623 8.4707 42.3391 8.97541 42.6076 9.72685L48.6385 26.4605C48.784 26.8755 48.784 27.3354 48.6385 27.7615L45.0133 37.822C44.4091 39.5043 42.037 39.5043 41.4328 37.822L31.7654 11.0279Z" fill="url(#paint1_linear_2304_3008)"/>
<path d="M48.068 8.4707C46.7253 8.4707 45.8078 9.82779 46.3001 11.0839L57.0975 38.3267C57.7353 39.9305 59.9955 39.9305 60.6333 38.3267L64.8068 27.8176C64.9858 27.3578 64.9858 26.8531 64.8068 26.4045L58.1717 9.67077C57.8808 8.94176 57.187 8.4707 56.4038 8.4707H48.068Z" fill="url(#paint2_linear_2304_3008)"/>
<defs>
<linearGradient id="paint0_linear_2304_3008" x1="40.2688" y1="1.13737" x2="74.8943" y2="47.2239" gradientUnits="userSpaceOnUse">
<stop stop-color="#F213A4"/>
<stop offset="1" stop-color="#5204BF"/>
</linearGradient>
<linearGradient id="paint1_linear_2304_3008" x1="40.2688" y1="1.13737" x2="74.8943" y2="47.2239" gradientUnits="userSpaceOnUse">
<stop stop-color="#F213A4"/>
<stop offset="1" stop-color="#5204BF"/>
</linearGradient>
<linearGradient id="paint2_linear_2304_3008" x1="40.2688" y1="1.13737" x2="74.8943" y2="47.2239" gradientUnits="userSpaceOnUse">
<stop stop-color="#F213A4"/>
<stop offset="1" stop-color="#5204BF"/>
</linearGradient>
</defs>
</svg>
